<svg xmlns="http://www.w3.org/2000/svg" viewBox="0 0 24 24" fill="none" stroke="currentColor" stroke-width="2" stroke-linecap="round" stroke-linejoin="round" class="lucide lucide-bike-wrench">
    <circle cx="12" cy="12" r="10" fill="#334155"/>
    <path d="M12 2a10 10 0 0 0-10 10 10 10 0 0 0 10 10 10 10 0 0 0 10-10A10 10 0 0 0 12 2z" stroke="#e2e8f0" stroke-width="1.5"/>
    <path d="m9 12 2 2 2-2" stroke="#e2e8f0" stroke-width="1.5"/>
    <path d="M12 14V9" stroke="#e2e8f0" stroke-width="1.5"/>
    <path d="M15.5 6.5 18 4" stroke="#e2e8f0" stroke-width="1.5"/>
    <path d="M6 18.5 4 21" stroke="#e2e8f0" stroke-width="1.5"/>
    <path d="M18.5 18 21 21" stroke="#e2e8f0" stroke-width="1.5"/>
    <path d="M4 4 6.5 6.5" stroke="#e2e8f0" stroke-width="1.5"/>
    <path d="M14.5 4.5 12 7l-2.5-2.5L12 2l2.5 2.5z" fill="#38bdf8"/>
    <path d="M17 10a2.5 2.5 0 1 1-5 0 2.5 2.5 0 0 1 5 0z" fill="#38bdf8"/>
</svg>
